<?xml version="1.0" standalone="no"?>
<!DOCTYPE svg PUBLIC "-//W3C//DTD SVG 20010904//EN"
 "http://www.w3.org/TR/2001/REC-SVG-20010904/DTD/svg10.dtd">
<svg version="1.0" xmlns="http://www.w3.org/2000/svg"
 width="583.000000pt" height="583.000000pt" viewBox="0 0 583.000000 583.000000"
 preserveAspectRatio="xMidYMid meet">
<metadata>
Created by potrace 1.11, written by Peter Selinger 2001-2013
</metadata>
<g transform="translate(0.000000,583.000000) scale(0.100000,-0.100000)"
fill="#000000" stroke="none">
<path d="M5450 5593 c-171 -78 -567 -212 -700 -236 -14 -3 -43 -10 -65 -16
-118 -31 -439 -89 -585 -106 -30 -3 -71 -8 -90 -10 -19 -3 -64 -7 -100 -10
-36 -2 -85 -7 -110 -10 -25 -2 -94 -10 -155 -15 -137 -13 -179 -18 -280 -31
-44 -5 -100 -12 -125 -15 -41 -6 -281 -45 -355 -59 -101 -19 -149 -29 -220
-47 -44 -11 -87 -21 -95 -23 -52 -10 -273 -83 -370 -121 -201 -80 -443 -219
-555 -320 -163 -146 -280 -278 -410 -459 -185 -259 -351 -624 -410 -905 -2 -8
-8 -35 -14 -60 -5 -25 -13 -67 -17 -95 -3 -27 -8 -52 -9 -55 -9 -15 -19 -211
-18 -334 3 -298 63 -559 188 -819 20 -42 40 -79 44 -82 4 -2 26 22 48 53 60
85 104 134 243 272 132 131 142 140 255 236 204 173 560 435 840 619 50 32
130 85 178 117 49 32 90 58 92 58 2 0 36 22 77 48 40 26 116 74 168 106 52 31
102 61 110 66 44 28 253 150 255 150 2 0 32 17 66 38 94 56 185 106 174 95 -5
-5 -80 -61 -165 -124 -85 -63 -222 -166 -304 -229 -82 -63 -160 -124 -175
-135 -33 -25 -304 -247 -311 -254 -3 -3 -34 -31 -70 -61 -36 -30 -67 -57 -70
-60 -3 -3 -25 -23 -50 -44 -197 -172 -613 -580 -786 -771 -254 -283 -370 -420
-571 -675 -6 -8 -32 -40 -56 -70 -59 -74 -369 -491 -432 -580 -27 -39 -54 -77
-60 -83 -5 -7 -19 -26 -31 -42 -11 -17 -37 -54 -57 -82 -20 -29 -37 -56 -37
-61 0 -5 24 -14 52 -21 29 -8 134 -36 233 -62 99 -27 186 -48 193 -47 8 2 26
24 40 50 185 326 448 707 593 861 l64 67 80 -51 c158 -100 430 -210 590 -238
33 -6 74 -13 90 -16 195 -34 422 -34 670 -1 24 4 148 29 245 51 83 18 306 101
445 165 306 142 677 427 867 666 249 316 469 825 646 1499 43 163 121 495 136
575 2 14 15 84 29 155 14 72 37 198 51 280 14 83 28 161 30 175 3 14 7 45 10
70 3 25 8 54 10 65 4 22 22 144 31 215 4 25 8 56 10 70 2 14 6 50 10 80 4 30
8 66 10 80 4 33 14 114 19 165 13 123 18 163 21 190 2 17 7 71 10 120 4 50 9
93 12 98 8 13 -22 6 -77 -20z"/>
</g>
</svg>
